<?xml version="1.0" encoding="utf-8"?>
<!-- Generator: Adobe Illustrator 22.0.0, SVG Export Plug-In . SVG Version: 6.00 Build 0)  -->
<svg version="1.1" id="图层_1" xmlns="http://www.w3.org/2000/svg" xmlns:xlink="http://www.w3.org/1999/xlink" x="0px" y="0px"
	 viewBox="0 0 48 48" style="enable-background:new 0 0 48 48;" xml:space="preserve">
<style type="text/css">
	.st0{fill:#FFFFFF;}
</style>
<title>icon-自动回复-pressed</title>
<desc>Created with Sketch.</desc>
<g id="Page-1">
	<g id="自动回复" transform="translate(-546.000000, -244.000000)">
		<path id="icon-自动回复-pressed" class="st0" d="M580.1,271.5h-19.2c-1.1,0-1.9-0.9-1.9-2s0.9-2,1.9-2h19.2
			c1.1,0,1.9,0.9,1.9,2S581.1,271.5,580.1,271.5z M576,263.5H561c-1.1,0-2-0.9-2-2s0.9-2,2-2H576c1.1,0,2,0.9,2,2
			S577.1,263.5,576,263.5z M570,288.5c-0.5,0-0.9-0.2-1.3-0.5l-6.3-5.5h-9.6c-2.7,0-4.9-2.2-4.9-4.9v-25.2c0-2.7,2.2-4.9,4.9-4.9
			h34.2c2.7,0,4.9,2.2,4.9,4.9v25.2c0,2.7-2.2,4.9-4.9,4.9h-9.6l-6.2,5.4C570.9,288.3,570.5,288.5,570,288.5z M553,251.5
			c-0.5,0-1,0.5-1,1v24.8c0,0.5,0.4,1,1,1h10.3c0.5,0,0.9,0.2,1.2,0.5l5.5,4.7l5.5-4.7c0.3-0.3,0.8-0.5,1.2-0.5H587c0.6,0,1-0.5,1-1
			v-24.8c0-0.5-0.4-1-1-1L553,251.5L553,251.5z"/>
	</g>
</g>
</svg>
