<?xml version="1.0" encoding="utf-8"?>
<!-- Generator: Adobe Illustrator 22.0.0, SVG Export Plug-In . SVG Version: 6.00 Build 0)  -->
<svg version="1.1" id="图层_1" xmlns="http://www.w3.org/2000/svg" xmlns:xlink="http://www.w3.org/1999/xlink" x="0px" y="0px"
	 viewBox="0 0 48 48" style="enable-background:new 0 0 48 48;" xml:space="preserve">
<style type="text/css">
	.st0{fill:#FFFFFF;}
	.st1{enable-background:new    ;}
</style>
<title>icon-用户提问-pressed</title>
<desc>Created with Sketch.</desc>
<g id="Page-1">
	<g id="用户提问" transform="translate(-167.000000, -250.000000)">
		<g id="icon-用户提问-pressed" transform="translate(169.000000, 252.000000)">
			<g id="Combined-Shape">
				<path class="st0" d="M21.5,42.5c-0.5,0-1-0.2-1.4-0.6l-0.7-0.7c-0.1-0.1-0.2-0.3-0.3-0.4c-0.1-0.1-0.3-0.2-0.4-0.3L18,39.8
					c-0.1-0.1-0.2-0.3-0.3-0.4c-0.1-0.1-0.3-0.2-0.4-0.3l-0.6-0.6h-0.4c-0.2,0-0.3,0-0.5-0.1c-0.2,0-0.3,0.1-0.5,0.1h-1
					c-0.2,0-0.3,0-0.5-0.1c-0.2,0-0.3,0.1-0.5,0.1h-1c-0.2,0-0.3,0-0.5-0.1c-0.2,0-0.3,0.1-0.5,0.1h-1c-0.2,0-0.3,0-0.5-0.1
					c-0.2,0-0.3,0.1-0.5,0.1h-1c-0.2,0-0.3,0-0.5-0.1c-0.2,0-0.3,0.1-0.5,0.1h-1c-0.2,0-0.4,0-0.5-0.1c-0.2,0-0.4,0.1-0.6,0.1
					c-0.5,0-1-0.1-1.5-0.3C3.4,38.1,3.2,38,3,37.8c-0.2,0-0.5-0.1-0.7-0.3c-0.4-0.3-0.8-0.6-1.2-1c-0.2-0.2-0.3-0.4-0.4-0.6
					c-0.2-0.2-0.4-0.3-0.5-0.6C0,35-0.2,34.5-0.3,34c-0.1-0.3-0.1-0.5,0-0.8c-0.1-0.2-0.1-0.5-0.1-0.7v-1c0-0.2,0-0.3,0.1-0.5
					c0-0.2-0.1-0.3-0.1-0.5v-1c0-0.2,0-0.3,0.1-0.5c0-0.2-0.1-0.3-0.1-0.5v-1c0-0.2,0-0.3,0.1-0.5c0-0.2-0.1-0.3-0.1-0.5v-1
					c0-0.2,0-0.3,0.1-0.5c0-0.2-0.1-0.3-0.1-0.5v-1c0-0.2,0-0.3,0.1-0.5c0-0.2-0.1-0.3-0.1-0.5v-1c0-0.2,0-0.3,0.1-0.5
					c0-0.2-0.1-0.3-0.1-0.5v-1c0-0.2,0-0.3,0.1-0.5c0-0.2-0.1-0.3-0.1-0.5v-1c0-0.2,0-0.3,0.1-0.5c0-0.2-0.1-0.3-0.1-0.5v-1
					c0-0.2,0-0.3,0.1-0.5c0-0.2-0.1-0.3-0.1-0.5v-1c0-0.2,0-0.3,0.1-0.5c0-0.2-0.1-0.3-0.1-0.5v-1c0-0.2,0-0.3,0.1-0.5
					c0-0.2-0.1-0.3-0.1-0.5v-1c0-0.2,0-0.3,0.1-0.5c0-0.2-0.1-0.3-0.1-0.5v-1c0-0.3,0-0.5,0.1-0.7c0-0.2,0-0.5,0-0.7
					c0.1-0.5,0.3-1,0.5-1.4c0.1-0.2,0.3-0.4,0.5-0.6c0.1-0.2,0.2-0.4,0.4-0.6c0.3-0.4,0.7-0.7,1.1-1c0.2-0.1,0.5-0.2,0.7-0.3
					C3.1,2,3.3,1.9,3.6,1.8c0.5-0.2,1-0.3,1.5-0.3c0.2,0,0.4,0,0.6,0.1c0.2,0,0.3-0.1,0.5-0.1h1c0.2,0,0.3,0,0.5,0.1
					c0.2,0,0.3-0.1,0.5-0.1h1c0.2,0,0.3,0,0.5,0.1c0.2,0,0.3-0.1,0.5-0.1h1c0.2,0,0.3,0,0.5,0.1c0.2,0,0.3-0.1,0.5-0.1h1
					c0.2,0,0.3,0,0.5,0.1c0.2,0,0.3-0.1,0.5-0.1h1c0.2,0,0.3,0,0.5,0.1c0.2,0,0.3-0.1,0.5-0.1h1c0.2,0,0.3,0,0.5,0.1
					c0.2,0,0.3-0.1,0.5-0.1h1c0.2,0,0.3,0,0.5,0.1c0.2,0,0.3-0.1,0.5-0.1h1c0.2,0,0.3,0,0.5,0.1c0.2,0,0.3-0.1,0.5-0.1h1
					c0.2,0,0.3,0,0.5,0.1c0.2,0,0.3-0.1,0.5-0.1h1c0.2,0,0.3,0,0.5,0.1c0.2,0,0.3-0.1,0.5-0.1h1c0.2,0,0.3,0,0.5,0.1
					c0.2,0,0.3-0.1,0.5-0.1h1c0.2,0,0.3,0,0.5,0.1c0.2,0,0.3-0.1,0.5-0.1h1c0.2,0,0.3,0,0.5,0.1c0.2,0,0.3-0.1,0.5-0.1h1
					c0.2,0,0.3,0,0.5,0.1c0.2,0,0.3-0.1,0.5-0.1h1c0.2,0,0.3,0,0.5,0.1c0.2,0,0.3-0.1,0.5-0.1h1c0.2,0,0.3,0,0.5,0.1
					c0.2,0,0.3-0.1,0.5-0.1h0.3c0.3,0,0.7,0,1,0.1c0.3,0,0.5,0.1,0.7,0.3c0.2,0,0.5,0.1,0.7,0.2c0.5,0.2,0.9,0.5,1.3,0.8
					c0.2,0.2,0.4,0.4,0.5,0.6c0.2,0.1,0.4,0.3,0.6,0.5c0.3,0.4,0.6,0.8,0.7,1.3c0.1,0.2,0.2,0.5,0.2,0.7c0.1,0.2,0.2,0.4,0.2,0.7
					c0,0.3,0.1,0.6,0.1,0.9v0.4c0,0.2,0,0.3-0.1,0.5c0,0.2,0.1,0.3,0.1,0.5v1c0,0.2,0,0.3-0.1,0.5c0,0.2,0.1,0.3,0.1,0.5v1
					c0,0.2,0,0.3-0.1,0.5c0,0.2,0.1,0.3,0.1,0.5v1c0,0.2,0,0.3-0.1,0.5c0,0.2,0.1,0.3,0.1,0.5v1c0,0.2,0,0.3-0.1,0.5
					c0,0.2,0.1,0.3,0.1,0.5v1c0,0.2,0,0.3-0.1,0.5c0,0.2,0.1,0.3,0.1,0.5v1c0,0.2,0,0.3-0.1,0.5c0,0.2,0.1,0.3,0.1,0.5v1
					c0,0.2,0,0.3-0.1,0.5c0,0.2,0.1,0.3,0.1,0.5v1c0,0.2,0,0.3-0.1,0.5c0,0.2,0.1,0.3,0.1,0.5v1c0,0.2,0,0.3-0.1,0.5
					c0,0.2,0.1,0.3,0.1,0.5v1c0,0.2,0,0.3-0.1,0.5c0,0.2,0.1,0.3,0.1,0.5v1c0,0.2,0,0.3-0.1,0.5c0,0.2,0.1,0.3,0.1,0.5v1
					c0,0.2,0,0.4-0.1,0.5c0,0.2,0.1,0.4,0,0.7c-0.1,0.5-0.2,1-0.3,1.5c-0.1,0.2-0.2,0.5-0.4,0.6c-0.1,0.2-0.2,0.5-0.3,0.7
					c-0.3,0.4-0.6,0.8-1,1.1c-0.2,0.2-0.4,0.3-0.6,0.4c-0.2,0.2-0.4,0.3-0.6,0.5c-0.4,0.2-0.9,0.4-1.4,0.5c-0.3,0.1-0.5,0.1-0.7,0
					c-0.2,0.1-0.4,0.1-0.7,0.1h-1c-0.2,0-0.3,0-0.5-0.1c-0.2,0-0.3,0.1-0.5,0.1h-1c-0.2,0-0.3,0-0.5-0.1c-0.2,0-0.3,0.1-0.5,0.1h-1
					c-0.2,0-0.3,0-0.5-0.1c-0.2,0-0.3,0.1-0.5,0.1h-1c-0.2,0-0.3,0-0.5-0.1c-0.2,0-0.3,0.1-0.5,0.1h-1c-0.2,0-0.3,0-0.5-0.1
					c-0.2,0-0.3,0.1-0.5,0.1h-1c-0.2,0-0.3,0-0.5-0.1l-0.3,0.2c-0.1,0.1-0.3,0.2-0.4,0.3c-0.1,0.1-0.2,0.3-0.3,0.4L25.1,40
					c-0.1,0.1-0.3,0.2-0.4,0.3c-0.1,0.1-0.2,0.3-0.3,0.4l-0.8,0.7c-0.1,0.1-0.3,0.2-0.4,0.3c-0.1,0.1-0.2,0.3-0.3,0.4l-0.1,0
					C22.4,42.3,22,42.5,21.5,42.5z M20.4,36.7c0.1,0.1,0.3,0.2,0.4,0.3l0.7,0.7c0,0,0,0,0,0l0.2-0.1c0.1-0.1,0.3-0.2,0.4-0.3
					c0.1-0.1,0.2-0.3,0.3-0.4l0.8-0.7c0.1-0.1,0.3-0.2,0.4-0.3c0.1-0.1,0.2-0.3,0.3-0.4l0.8-0.7c0.4-0.3,0.8-0.5,1.3-0.5h0.3
					c0.2,0,0.3,0,0.5,0.1c0.2,0,0.3-0.1,0.5-0.1h1c0.2,0,0.3,0,0.5,0.1c0.2,0,0.3-0.1,0.5-0.1h1c0.2,0,0.3,0,0.5,0.1
					c0.2,0,0.3-0.1,0.5-0.1h1c0.2,0,0.3,0,0.5,0.1c0.2,0,0.3-0.1,0.5-0.1h1c0.2,0,0.3,0,0.5,0.1c0.2,0,0.3-0.1,0.5-0.1h1
					c0.2,0,0.3,0,0.5,0.1c0.2,0,0.3-0.1,0.5-0.1h1c0.1,0,0.2,0,0.3,0c0.1,0,0.2-0.1,0.2-0.1c0.2,0,0.3-0.1,0.5-0.2
					c0.1,0,0.2-0.1,0.2-0.1c0.1-0.1,0.1-0.1,0.2-0.2c0.1-0.1,0.2-0.2,0.3-0.4c0-0.1,0.1-0.1,0.2-0.2c0-0.1,0-0.2,0.1-0.2
					c0.1-0.2,0.1-0.3,0.1-0.5c0-0.1,0-0.2,0.1-0.3c0-0.1-0.1-0.3-0.1-0.5v-1c0-0.2,0-0.3,0.1-0.5c0-0.2-0.1-0.3-0.1-0.5v-1
					c0-0.2,0-0.3,0.1-0.5c0-0.2-0.1-0.3-0.1-0.5v-1c0-0.2,0-0.3,0.1-0.5c0-0.2-0.1-0.3-0.1-0.5v-1c0-0.2,0-0.3,0.1-0.5
					c0-0.2-0.1-0.3-0.1-0.5v-1c0-0.2,0-0.3,0.1-0.5c0-0.2-0.1-0.3-0.1-0.5v-1c0-0.2,0-0.3,0.1-0.5c0-0.2-0.1-0.3-0.1-0.5v-1
					c0-0.2,0-0.3,0.1-0.5c0-0.2-0.1-0.3-0.1-0.5v-1c0-0.2,0-0.3,0.1-0.5c0-0.2-0.1-0.3-0.1-0.5v-1c0-0.2,0-0.3,0.1-0.5
					c0-0.2-0.1-0.3-0.1-0.5v-1c0-0.2,0-0.3,0.1-0.5c0-0.2-0.1-0.3-0.1-0.5v-1c0-0.2,0-0.3,0.1-0.5c0-0.2-0.1-0.3-0.1-0.5v-1
					c0-0.2,0-0.3,0.1-0.5c0-0.2-0.1-0.3-0.1-0.5V7.5c0-0.1,0-0.2,0-0.3c0-0.1,0-0.2,0-0.3c0-0.1-0.1-0.1-0.1-0.2
					c-0.1-0.2-0.1-0.3-0.2-0.4C40,6.2,40,6.2,40,6.1c-0.1,0-0.1-0.1-0.2-0.1c-0.1-0.1-0.3-0.2-0.4-0.3c-0.1,0-0.2-0.1-0.2-0.1
					c-0.1,0-0.2,0-0.3,0c-0.1,0-0.2,0-0.3,0h-0.3c-0.2,0-0.3,0-0.5-0.1c-0.2,0-0.3,0.1-0.5,0.1h-1c-0.2,0-0.3,0-0.5-0.1
					c-0.2,0-0.3,0.1-0.5,0.1h-1c-0.2,0-0.3,0-0.5-0.1c-0.2,0-0.3,0.1-0.5,0.1h-1c-0.2,0-0.3,0-0.5-0.1c-0.2,0-0.3,0.1-0.5,0.1h-1
					c-0.2,0-0.3,0-0.5-0.1c-0.2,0-0.3,0.1-0.5,0.1h-1c-0.2,0-0.3,0-0.5-0.1c-0.2,0-0.3,0.1-0.5,0.1h-1c-0.2,0-0.3,0-0.5-0.1
					c-0.2,0-0.3,0.1-0.5,0.1h-1c-0.2,0-0.3,0-0.5-0.1c-0.2,0-0.3,0.1-0.5,0.1h-1c-0.2,0-0.3,0-0.5-0.1c-0.2,0-0.3,0.1-0.5,0.1h-1
					c-0.2,0-0.3,0-0.5-0.1c-0.2,0-0.3,0.1-0.5,0.1h-1c-0.2,0-0.3,0-0.5-0.1c-0.2,0-0.3,0.1-0.5,0.1h-1c-0.2,0-0.3,0-0.5-0.1
					c-0.2,0-0.3,0.1-0.5,0.1h-1c-0.2,0-0.3,0-0.5-0.1c-0.2,0-0.3,0.1-0.5,0.1h-1c-0.2,0-0.3,0-0.5-0.1c-0.2,0-0.3,0.1-0.5,0.1h-1
					c-0.2,0-0.3,0-0.5-0.1c-0.2,0-0.3,0.1-0.5,0.1h-1c-0.2,0-0.3,0-0.5-0.1c-0.2,0-0.3,0.1-0.5,0.1h-1c-0.2,0-0.3,0-0.5-0.1
					c-0.1,0-0.2,0.1-0.4,0.1c-0.2,0-0.3,0-0.5,0.1c-0.1,0-0.2,0-0.2,0.1C4.6,5.7,4.5,5.8,4.4,5.8C4.3,5.9,4.1,6,4,6.1
					C4,6.2,3.9,6.3,3.8,6.3c0,0.1-0.1,0.2-0.1,0.2C3.7,6.7,3.6,6.9,3.6,7c0,0.1,0,0.2-0.1,0.2c0,0.1,0,0.2,0,0.3v1
					c0,0.2,0,0.3-0.1,0.5c0,0.2,0.1,0.3,0.1,0.5v1c0,0.2,0,0.3-0.1,0.5c0,0.2,0.1,0.3,0.1,0.5v1c0,0.2,0,0.3-0.1,0.5
					c0,0.2,0.1,0.3,0.1,0.5v1c0,0.2,0,0.3-0.1,0.5c0,0.2,0.1,0.3,0.1,0.5v1c0,0.2,0,0.3-0.1,0.5c0,0.2,0.1,0.3,0.1,0.5v1
					c0,0.2,0,0.3-0.1,0.5c0,0.2,0.1,0.3,0.1,0.5v1c0,0.2,0,0.3-0.1,0.5c0,0.2,0.1,0.3,0.1,0.5v1c0,0.2,0,0.3-0.1,0.5
					c0,0.2,0.1,0.3,0.1,0.5v1c0,0.2,0,0.3-0.1,0.5c0,0.2,0.1,0.3,0.1,0.5v1c0,0.2,0,0.3-0.1,0.5c0,0.2,0.1,0.3,0.1,0.5v1
					c0,0.2,0,0.3-0.1,0.5c0,0.2,0.1,0.3,0.1,0.5v1c0,0.2,0,0.3-0.1,0.5c0,0.2,0.1,0.3,0.1,0.5v1c0,0.1,0,0.2,0,0.3
					c0,0.1,0.1,0.2,0.1,0.2c0,0.2,0.1,0.3,0.2,0.5c0,0.1,0.1,0.2,0.1,0.2C3.9,33.7,4,33.8,4,33.9c0.1,0.1,0.2,0.2,0.4,0.3
					c0.1,0,0.1,0.1,0.2,0.1c0.1,0,0.2,0,0.2,0.1c0.2,0.1,0.3,0.1,0.5,0.1c0.1,0,0.3,0,0.4,0.1c0.2,0,0.3-0.1,0.5-0.1h1
					c0.2,0,0.3,0,0.5,0.1c0.2,0,0.3-0.1,0.5-0.1h1c0.2,0,0.3,0,0.5,0.1c0.2,0,0.3-0.1,0.5-0.1h1c0.2,0,0.3,0,0.5,0.1
					c0.2,0,0.3-0.1,0.5-0.1h1c0.2,0,0.3,0,0.5,0.1c0.2,0,0.3-0.1,0.5-0.1h1c0.2,0,0.3,0,0.5,0.1c0.2,0,0.3-0.1,0.5-0.1h1
					c0.6,0,1.1,0.2,1.5,0.6c0.3,0.1,0.5,0.3,0.7,0.5l0.7,0.7C20.3,36.4,20.4,36.6,20.4,36.7z"/>
			</g>
			<g class="st1">
				<path class="st0" d="M26.5,12.3c1,0.8,1.4,2,1.4,3.4c0,1.2-0.3,2.2-0.9,2.9c-0.2,0.3-0.9,0.9-2,1.9c-0.5,0.4-0.8,0.8-1,1.2
					c-0.3,0.5-0.4,1-0.4,1.6v0.4h-2.6v-0.4c0-0.9,0.1-1.7,0.5-2.3c0.3-0.7,1.2-1.7,2.7-3l0.4-0.5c0.4-0.6,0.7-1.1,0.7-1.8
					c0-0.8-0.2-1.5-0.7-2c-0.5-0.5-1.2-0.7-2-0.7c-1.1,0-1.9,0.3-2.4,1c-0.4,0.6-0.6,1.4-0.6,2.4h-2.5c0-1.8,0.5-3.1,1.5-4.1
					c1-1,2.4-1.5,4.2-1.5C24.3,11,25.5,11.4,26.5,12.3z M23.6,25.5c0.3,0.3,0.5,0.7,0.5,1.2c0,0.5-0.2,0.9-0.5,1.2
					c-0.3,0.3-0.8,0.5-1.2,0.5s-0.9-0.2-1.2-0.5s-0.5-0.7-0.5-1.2c0-0.5,0.2-0.9,0.5-1.2c0.3-0.3,0.8-0.5,1.2-0.5
					C22.8,25.1,23.3,25.2,23.6,25.5z"/>
			</g>
		</g>
	</g>
</g>
</svg>
